<mxfile host="Electron" modified="2025-07-04T18:12:33.712Z" agent="Mozilla/5.0 (Windows NT 10.0; Win64; x64) AppleWebKit/537.36 (KHTML, like Gecko) draw.io/24.0.4 Chrome/120.0.6099.109 Electron/28.1.0 Safari/537.36" etag="1XE3sTGz4FzDxbRsIoRS" version="24.0.4" type="device">
  <diagram name="Page-1" id="DC2xZJmEquS1sfnQSpFJ">
    <mxGraphModel dx="1276" dy="606" grid="1" gridSize="10" guides="1" tooltips="1" connect="1" arrows="1" fold="1" page="1" pageScale="1" pageWidth="850" pageHeight="1100" math="0" shadow="0">
      <root>
        <mxCell id="0" />
        <mxCell id="1" parent="0" />
        <mxCell id="agCjhB-TfCYXXtRwyoT0-4" value="" style="edgeStyle=orthogonalEdgeStyle;rounded=0;orthogonalLoop=1;jettySize=auto;html=1;" edge="1" parent="1" source="agCjhB-TfCYXXtRwyoT0-1" target="agCjhB-TfCYXXtRwyoT0-3">
          <mxGeometry relative="1" as="geometry" />
        </mxCell>
        <mxCell id="agCjhB-TfCYXXtRwyoT0-1" value="start" style="ellipse;whiteSpace=wrap;html=1;" vertex="1" parent="1">
          <mxGeometry x="80" y="40" width="120" height="80" as="geometry" />
        </mxCell>
        <mxCell id="agCjhB-TfCYXXtRwyoT0-7" value="yes" style="edgeStyle=orthogonalEdgeStyle;rounded=0;orthogonalLoop=1;jettySize=auto;html=1;" edge="1" parent="1" source="agCjhB-TfCYXXtRwyoT0-2" target="agCjhB-TfCYXXtRwyoT0-6">
          <mxGeometry relative="1" as="geometry" />
        </mxCell>
        <mxCell id="agCjhB-TfCYXXtRwyoT0-49" value="no" style="edgeStyle=orthogonalEdgeStyle;rounded=0;orthogonalLoop=1;jettySize=auto;html=1;" edge="1" parent="1" source="agCjhB-TfCYXXtRwyoT0-2" target="agCjhB-TfCYXXtRwyoT0-50">
          <mxGeometry relative="1" as="geometry">
            <mxPoint x="470" y="200" as="targetPoint" />
            <Array as="points">
              <mxPoint x="420" y="100" />
              <mxPoint x="420" y="170" />
            </Array>
          </mxGeometry>
        </mxCell>
        <mxCell id="agCjhB-TfCYXXtRwyoT0-2" value="logged in" style="rhombus;whiteSpace=wrap;html=1;" vertex="1" parent="1">
          <mxGeometry x="490" y="60" width="80" height="80" as="geometry" />
        </mxCell>
        <mxCell id="agCjhB-TfCYXXtRwyoT0-3" value="fetc request" style="rounded=0;whiteSpace=wrap;html=1;" vertex="1" parent="1">
          <mxGeometry x="270" y="60" width="120" height="60" as="geometry" />
        </mxCell>
        <mxCell id="agCjhB-TfCYXXtRwyoT0-5" style="edgeStyle=orthogonalEdgeStyle;rounded=0;orthogonalLoop=1;jettySize=auto;html=1;entryX=0.5;entryY=0;entryDx=0;entryDy=0;" edge="1" parent="1" source="agCjhB-TfCYXXtRwyoT0-3" target="agCjhB-TfCYXXtRwyoT0-2">
          <mxGeometry relative="1" as="geometry" />
        </mxCell>
        <mxCell id="agCjhB-TfCYXXtRwyoT0-10" value="" style="edgeStyle=orthogonalEdgeStyle;rounded=0;orthogonalLoop=1;jettySize=auto;html=1;" edge="1" parent="1" source="agCjhB-TfCYXXtRwyoT0-6" target="agCjhB-TfCYXXtRwyoT0-9">
          <mxGeometry relative="1" as="geometry">
            <Array as="points">
              <mxPoint x="690" y="230" />
              <mxPoint x="140" y="230" />
            </Array>
          </mxGeometry>
        </mxCell>
        <mxCell id="agCjhB-TfCYXXtRwyoT0-6" value="get the number of all unread notifications" style="whiteSpace=wrap;html=1;" vertex="1" parent="1">
          <mxGeometry x="630" y="70" width="120" height="60" as="geometry" />
        </mxCell>
        <mxCell id="agCjhB-TfCYXXtRwyoT0-12" value="" style="edgeStyle=orthogonalEdgeStyle;rounded=0;orthogonalLoop=1;jettySize=auto;html=1;" edge="1" parent="1" source="agCjhB-TfCYXXtRwyoT0-9" target="agCjhB-TfCYXXtRwyoT0-11">
          <mxGeometry relative="1" as="geometry" />
        </mxCell>
        <mxCell id="agCjhB-TfCYXXtRwyoT0-54" value="no" style="edgeStyle=orthogonalEdgeStyle;rounded=0;orthogonalLoop=1;jettySize=auto;html=1;exitX=0;exitY=0.5;exitDx=0;exitDy=0;" edge="1" parent="1" source="agCjhB-TfCYXXtRwyoT0-9" target="agCjhB-TfCYXXtRwyoT0-53">
          <mxGeometry relative="1" as="geometry" />
        </mxCell>
        <mxCell id="agCjhB-TfCYXXtRwyoT0-9" value="request is post" style="rhombus;whiteSpace=wrap;html=1;" vertex="1" parent="1">
          <mxGeometry x="100" y="270" width="80" height="80" as="geometry" />
        </mxCell>
        <mxCell id="agCjhB-TfCYXXtRwyoT0-14" value="" style="edgeStyle=orthogonalEdgeStyle;rounded=0;orthogonalLoop=1;jettySize=auto;html=1;entryX=0.5;entryY=0;entryDx=0;entryDy=0;" edge="1" parent="1" source="agCjhB-TfCYXXtRwyoT0-11" target="agCjhB-TfCYXXtRwyoT0-15">
          <mxGeometry relative="1" as="geometry">
            <mxPoint x="440" y="310" as="targetPoint" />
          </mxGeometry>
        </mxCell>
        <mxCell id="agCjhB-TfCYXXtRwyoT0-11" value="get the quiz data from session" style="whiteSpace=wrap;html=1;" vertex="1" parent="1">
          <mxGeometry x="240" y="280" width="120" height="60" as="geometry" />
        </mxCell>
        <mxCell id="agCjhB-TfCYXXtRwyoT0-17" value="yes" style="edgeStyle=orthogonalEdgeStyle;rounded=0;orthogonalLoop=1;jettySize=auto;html=1;" edge="1" parent="1" source="agCjhB-TfCYXXtRwyoT0-15" target="agCjhB-TfCYXXtRwyoT0-16">
          <mxGeometry relative="1" as="geometry" />
        </mxCell>
        <mxCell id="agCjhB-TfCYXXtRwyoT0-26" value="no" style="edgeStyle=orthogonalEdgeStyle;rounded=0;orthogonalLoop=1;jettySize=auto;html=1;" edge="1" parent="1" source="agCjhB-TfCYXXtRwyoT0-15" target="agCjhB-TfCYXXtRwyoT0-25">
          <mxGeometry relative="1" as="geometry" />
        </mxCell>
        <mxCell id="agCjhB-TfCYXXtRwyoT0-15" value="questions left" style="rhombus;whiteSpace=wrap;html=1;" vertex="1" parent="1">
          <mxGeometry x="510" y="290" width="80" height="80" as="geometry" />
        </mxCell>
        <mxCell id="agCjhB-TfCYXXtRwyoT0-24" value="" style="edgeStyle=orthogonalEdgeStyle;rounded=0;orthogonalLoop=1;jettySize=auto;html=1;" edge="1" parent="1" source="agCjhB-TfCYXXtRwyoT0-16" target="agCjhB-TfCYXXtRwyoT0-18">
          <mxGeometry relative="1" as="geometry" />
        </mxCell>
        <mxCell id="agCjhB-TfCYXXtRwyoT0-16" value="get quetsion , user answer&amp;nbsp; and correct answer" style="whiteSpace=wrap;html=1;" vertex="1" parent="1">
          <mxGeometry x="650" y="300" width="120" height="60" as="geometry" />
        </mxCell>
        <mxCell id="agCjhB-TfCYXXtRwyoT0-21" value="yes" style="edgeStyle=orthogonalEdgeStyle;rounded=0;orthogonalLoop=1;jettySize=auto;html=1;exitX=1;exitY=0.5;exitDx=0;exitDy=0;" edge="1" parent="1" source="agCjhB-TfCYXXtRwyoT0-18" target="agCjhB-TfCYXXtRwyoT0-20">
          <mxGeometry x="-0.7" relative="1" as="geometry">
            <Array as="points">
              <mxPoint x="720" y="480" />
              <mxPoint x="720" y="540" />
              <mxPoint x="640" y="540" />
            </Array>
            <mxPoint as="offset" />
          </mxGeometry>
        </mxCell>
        <mxCell id="agCjhB-TfCYXXtRwyoT0-56" value="no" style="edgeStyle=orthogonalEdgeStyle;rounded=0;orthogonalLoop=1;jettySize=auto;html=1;entryX=0;entryY=0.5;entryDx=0;entryDy=0;" edge="1" parent="1" source="agCjhB-TfCYXXtRwyoT0-18" target="agCjhB-TfCYXXtRwyoT0-22">
          <mxGeometry x="-0.76" relative="1" as="geometry">
            <Array as="points">
              <mxPoint x="560" y="480" />
              <mxPoint x="560" y="670" />
            </Array>
            <mxPoint as="offset" />
          </mxGeometry>
        </mxCell>
        <mxCell id="agCjhB-TfCYXXtRwyoT0-18" value="user answer is correct&amp;nbsp;" style="rhombus;whiteSpace=wrap;html=1;" vertex="1" parent="1">
          <mxGeometry x="600" y="440" width="80" height="80" as="geometry" />
        </mxCell>
        <mxCell id="agCjhB-TfCYXXtRwyoT0-23" value="" style="edgeStyle=orthogonalEdgeStyle;rounded=0;orthogonalLoop=1;jettySize=auto;html=1;" edge="1" parent="1" source="agCjhB-TfCYXXtRwyoT0-20" target="agCjhB-TfCYXXtRwyoT0-22">
          <mxGeometry relative="1" as="geometry" />
        </mxCell>
        <mxCell id="agCjhB-TfCYXXtRwyoT0-20" value="score +=1" style="whiteSpace=wrap;html=1;" vertex="1" parent="1">
          <mxGeometry x="580" y="560" width="120" height="60" as="geometry" />
        </mxCell>
        <mxCell id="agCjhB-TfCYXXtRwyoT0-42" style="edgeStyle=orthogonalEdgeStyle;rounded=0;orthogonalLoop=1;jettySize=auto;html=1;entryX=0.5;entryY=0;entryDx=0;entryDy=0;" edge="1" parent="1" source="agCjhB-TfCYXXtRwyoT0-22" target="agCjhB-TfCYXXtRwyoT0-15">
          <mxGeometry relative="1" as="geometry">
            <Array as="points">
              <mxPoint x="820" y="670" />
              <mxPoint x="820" y="270" />
              <mxPoint x="550" y="270" />
            </Array>
          </mxGeometry>
        </mxCell>
        <mxCell id="agCjhB-TfCYXXtRwyoT0-22" value="add question data to the list&amp;nbsp;" style="whiteSpace=wrap;html=1;" vertex="1" parent="1">
          <mxGeometry x="580" y="640" width="120" height="60" as="geometry" />
        </mxCell>
        <mxCell id="agCjhB-TfCYXXtRwyoT0-28" value="" style="edgeStyle=orthogonalEdgeStyle;rounded=0;orthogonalLoop=1;jettySize=auto;html=1;" edge="1" parent="1" source="agCjhB-TfCYXXtRwyoT0-25" target="agCjhB-TfCYXXtRwyoT0-27">
          <mxGeometry relative="1" as="geometry" />
        </mxCell>
        <mxCell id="agCjhB-TfCYXXtRwyoT0-25" value="delete quiz data from session" style="whiteSpace=wrap;html=1;" vertex="1" parent="1">
          <mxGeometry x="340" y="420" width="120" height="60" as="geometry" />
        </mxCell>
        <mxCell id="agCjhB-TfCYXXtRwyoT0-30" value="" style="edgeStyle=orthogonalEdgeStyle;rounded=0;orthogonalLoop=1;jettySize=auto;html=1;" edge="1" parent="1" source="agCjhB-TfCYXXtRwyoT0-27" target="agCjhB-TfCYXXtRwyoT0-29">
          <mxGeometry relative="1" as="geometry" />
        </mxCell>
        <mxCell id="agCjhB-TfCYXXtRwyoT0-27" value="get level from session&amp;nbsp;" style="whiteSpace=wrap;html=1;" vertex="1" parent="1">
          <mxGeometry x="340" y="500" width="120" height="60" as="geometry" />
        </mxCell>
        <mxCell id="agCjhB-TfCYXXtRwyoT0-32" value="no" style="edgeStyle=orthogonalEdgeStyle;rounded=0;orthogonalLoop=1;jettySize=auto;html=1;entryX=0.5;entryY=0;entryDx=0;entryDy=0;" edge="1" parent="1" source="agCjhB-TfCYXXtRwyoT0-29" target="agCjhB-TfCYXXtRwyoT0-31">
          <mxGeometry relative="1" as="geometry" />
        </mxCell>
        <mxCell id="agCjhB-TfCYXXtRwyoT0-36" value="yes" style="edgeStyle=orthogonalEdgeStyle;rounded=0;orthogonalLoop=1;jettySize=auto;html=1;exitX=1;exitY=0.5;exitDx=0;exitDy=0;" edge="1" parent="1" source="agCjhB-TfCYXXtRwyoT0-29" target="agCjhB-TfCYXXtRwyoT0-35">
          <mxGeometry relative="1" as="geometry" />
        </mxCell>
        <mxCell id="agCjhB-TfCYXXtRwyoT0-29" value="level is easy&amp;nbsp;" style="rhombus;whiteSpace=wrap;html=1;" vertex="1" parent="1">
          <mxGeometry x="360" y="580" width="80" height="80" as="geometry" />
        </mxCell>
        <mxCell id="agCjhB-TfCYXXtRwyoT0-34" value="no" style="edgeStyle=orthogonalEdgeStyle;rounded=0;orthogonalLoop=1;jettySize=auto;html=1;entryX=0.5;entryY=0;entryDx=0;entryDy=0;" edge="1" parent="1" source="agCjhB-TfCYXXtRwyoT0-31" target="agCjhB-TfCYXXtRwyoT0-33">
          <mxGeometry relative="1" as="geometry">
            <mxPoint x="120" y="620" as="targetPoint" />
          </mxGeometry>
        </mxCell>
        <mxCell id="agCjhB-TfCYXXtRwyoT0-40" value="yes" style="edgeStyle=orthogonalEdgeStyle;rounded=0;orthogonalLoop=1;jettySize=auto;html=1;exitX=1;exitY=0.5;exitDx=0;exitDy=0;" edge="1" parent="1" source="agCjhB-TfCYXXtRwyoT0-31" target="agCjhB-TfCYXXtRwyoT0-37">
          <mxGeometry relative="1" as="geometry" />
        </mxCell>
        <mxCell id="agCjhB-TfCYXXtRwyoT0-31" value="level is mid" style="rhombus;whiteSpace=wrap;html=1;" vertex="1" parent="1">
          <mxGeometry x="200" y="580" width="80" height="80" as="geometry" />
        </mxCell>
        <mxCell id="agCjhB-TfCYXXtRwyoT0-39" value="yes" style="edgeStyle=orthogonalEdgeStyle;rounded=0;orthogonalLoop=1;jettySize=auto;html=1;entryX=0.5;entryY=0;entryDx=0;entryDy=0;exitX=1;exitY=0.5;exitDx=0;exitDy=0;" edge="1" parent="1" source="agCjhB-TfCYXXtRwyoT0-33" target="agCjhB-TfCYXXtRwyoT0-38">
          <mxGeometry relative="1" as="geometry" />
        </mxCell>
        <mxCell id="agCjhB-TfCYXXtRwyoT0-64" value="no" style="edgeStyle=orthogonalEdgeStyle;rounded=0;orthogonalLoop=1;jettySize=auto;html=1;" edge="1" parent="1" source="agCjhB-TfCYXXtRwyoT0-33" target="agCjhB-TfCYXXtRwyoT0-43">
          <mxGeometry x="-0.7692" relative="1" as="geometry">
            <Array as="points">
              <mxPoint x="10" y="620" />
              <mxPoint x="10" y="840" />
              <mxPoint x="260" y="840" />
            </Array>
            <mxPoint as="offset" />
          </mxGeometry>
        </mxCell>
        <mxCell id="agCjhB-TfCYXXtRwyoT0-33" value="level is hard&amp;nbsp;" style="rhombus;whiteSpace=wrap;html=1;" vertex="1" parent="1">
          <mxGeometry x="40" y="580" width="80" height="80" as="geometry" />
        </mxCell>
        <mxCell id="agCjhB-TfCYXXtRwyoT0-46" style="edgeStyle=orthogonalEdgeStyle;rounded=0;orthogonalLoop=1;jettySize=auto;html=1;" edge="1" parent="1" source="agCjhB-TfCYXXtRwyoT0-35" target="agCjhB-TfCYXXtRwyoT0-43">
          <mxGeometry relative="1" as="geometry">
            <Array as="points">
              <mxPoint x="470" y="800" />
              <mxPoint x="260" y="800" />
            </Array>
          </mxGeometry>
        </mxCell>
        <mxCell id="agCjhB-TfCYXXtRwyoT0-35" value="points+=5" style="whiteSpace=wrap;html=1;" vertex="1" parent="1">
          <mxGeometry x="410" y="710" width="120" height="60" as="geometry" />
        </mxCell>
        <mxCell id="agCjhB-TfCYXXtRwyoT0-45" style="edgeStyle=orthogonalEdgeStyle;rounded=0;orthogonalLoop=1;jettySize=auto;html=1;" edge="1" parent="1" source="agCjhB-TfCYXXtRwyoT0-37">
          <mxGeometry relative="1" as="geometry">
            <mxPoint x="260" y="860" as="targetPoint" />
          </mxGeometry>
        </mxCell>
        <mxCell id="agCjhB-TfCYXXtRwyoT0-37" value="points+=10" style="whiteSpace=wrap;html=1;" vertex="1" parent="1">
          <mxGeometry x="200" y="710" width="120" height="60" as="geometry" />
        </mxCell>
        <mxCell id="agCjhB-TfCYXXtRwyoT0-44" style="edgeStyle=orthogonalEdgeStyle;rounded=0;orthogonalLoop=1;jettySize=auto;html=1;" edge="1" parent="1" source="agCjhB-TfCYXXtRwyoT0-38" target="agCjhB-TfCYXXtRwyoT0-43">
          <mxGeometry relative="1" as="geometry">
            <Array as="points">
              <mxPoint x="80" y="800" />
              <mxPoint x="260" y="800" />
            </Array>
          </mxGeometry>
        </mxCell>
        <mxCell id="agCjhB-TfCYXXtRwyoT0-38" value="points+=15" style="whiteSpace=wrap;html=1;" vertex="1" parent="1">
          <mxGeometry x="20" y="710" width="120" height="60" as="geometry" />
        </mxCell>
        <mxCell id="agCjhB-TfCYXXtRwyoT0-48" value="yes" style="edgeStyle=orthogonalEdgeStyle;rounded=0;orthogonalLoop=1;jettySize=auto;html=1;" edge="1" parent="1" source="agCjhB-TfCYXXtRwyoT0-43" target="agCjhB-TfCYXXtRwyoT0-47">
          <mxGeometry relative="1" as="geometry" />
        </mxCell>
        <mxCell id="agCjhB-TfCYXXtRwyoT0-60" value="no" style="edgeStyle=orthogonalEdgeStyle;rounded=0;orthogonalLoop=1;jettySize=auto;html=1;" edge="1" parent="1" source="agCjhB-TfCYXXtRwyoT0-43" target="agCjhB-TfCYXXtRwyoT0-58">
          <mxGeometry x="-0.7241" relative="1" as="geometry">
            <Array as="points">
              <mxPoint x="190" y="900" />
              <mxPoint x="190" y="990" />
            </Array>
            <mxPoint as="offset" />
          </mxGeometry>
        </mxCell>
        <mxCell id="agCjhB-TfCYXXtRwyoT0-43" value="score &amp;gt;=15" style="rhombus;whiteSpace=wrap;html=1;" vertex="1" parent="1">
          <mxGeometry x="220" y="860" width="80" height="80" as="geometry" />
        </mxCell>
        <mxCell id="agCjhB-TfCYXXtRwyoT0-62" style="edgeStyle=orthogonalEdgeStyle;rounded=0;orthogonalLoop=1;jettySize=auto;html=1;entryX=0.5;entryY=0;entryDx=0;entryDy=0;" edge="1" parent="1" source="agCjhB-TfCYXXtRwyoT0-47" target="agCjhB-TfCYXXtRwyoT0-61">
          <mxGeometry relative="1" as="geometry">
            <Array as="points">
              <mxPoint x="670" y="890" />
            </Array>
          </mxGeometry>
        </mxCell>
        <mxCell id="agCjhB-TfCYXXtRwyoT0-47" value="add points to the user&#39;s account&amp;nbsp;" style="whiteSpace=wrap;html=1;" vertex="1" parent="1">
          <mxGeometry x="360" y="870" width="120" height="60" as="geometry" />
        </mxCell>
        <mxCell id="agCjhB-TfCYXXtRwyoT0-52" value="" style="edgeStyle=orthogonalEdgeStyle;rounded=0;orthogonalLoop=1;jettySize=auto;html=1;" edge="1" parent="1" source="agCjhB-TfCYXXtRwyoT0-50" target="agCjhB-TfCYXXtRwyoT0-51">
          <mxGeometry relative="1" as="geometry" />
        </mxCell>
        <mxCell id="agCjhB-TfCYXXtRwyoT0-50" value="redirect to login page" style="rounded=0;whiteSpace=wrap;html=1;" vertex="1" parent="1">
          <mxGeometry x="260" y="140" width="120" height="60" as="geometry" />
        </mxCell>
        <mxCell id="agCjhB-TfCYXXtRwyoT0-51" value="end" style="ellipse;whiteSpace=wrap;html=1;rounded=0;" vertex="1" parent="1">
          <mxGeometry x="80" y="130" width="110" height="60" as="geometry" />
        </mxCell>
        <mxCell id="agCjhB-TfCYXXtRwyoT0-65" style="edgeStyle=orthogonalEdgeStyle;rounded=0;orthogonalLoop=1;jettySize=auto;html=1;entryX=0;entryY=0.5;entryDx=0;entryDy=0;" edge="1" parent="1" source="agCjhB-TfCYXXtRwyoT0-53" target="agCjhB-TfCYXXtRwyoT0-51">
          <mxGeometry relative="1" as="geometry">
            <Array as="points">
              <mxPoint x="40" y="410" />
              <mxPoint x="40" y="160" />
            </Array>
          </mxGeometry>
        </mxCell>
        <mxCell id="agCjhB-TfCYXXtRwyoT0-53" value="redirect to quiz home page" style="rounded=0;whiteSpace=wrap;html=1;" vertex="1" parent="1">
          <mxGeometry x="70" y="380" width="120" height="60" as="geometry" />
        </mxCell>
        <mxCell id="agCjhB-TfCYXXtRwyoT0-63" style="edgeStyle=orthogonalEdgeStyle;rounded=0;orthogonalLoop=1;jettySize=auto;html=1;entryX=0.5;entryY=1;entryDx=0;entryDy=0;" edge="1" parent="1" source="agCjhB-TfCYXXtRwyoT0-58" target="agCjhB-TfCYXXtRwyoT0-61">
          <mxGeometry relative="1" as="geometry">
            <mxPoint x="670" y="900" as="targetPoint" />
            <Array as="points">
              <mxPoint x="570" y="990" />
              <mxPoint x="570" y="890" />
              <mxPoint x="670" y="890" />
            </Array>
          </mxGeometry>
        </mxCell>
        <mxCell id="agCjhB-TfCYXXtRwyoT0-58" value="render results page" style="whiteSpace=wrap;html=1;" vertex="1" parent="1">
          <mxGeometry x="360" y="960" width="120" height="60" as="geometry" />
        </mxCell>
        <mxCell id="agCjhB-TfCYXXtRwyoT0-61" value="end" style="ellipse;whiteSpace=wrap;html=1;direction=west;" vertex="1" parent="1">
          <mxGeometry x="610" y="940" width="120" height="80" as="geometry" />
        </mxCell>
      </root>
    </mxGraphModel>
  </diagram>
</mxfile>
